multi audio


Synopsis
Nickelodeon's popular cartoon series DORA THE EXPLORER has charmed little girls everywhere with the fun-filled escapades of its adorable bilingual heroine. Preschool boys get their own chance at excitement with the spinoff series GO DIEGO GO which centres on Dora's cousin, Diego, as he engages in swashbuckling adventures with the same brand of interactive learning that made the parent show such a success. In this Halloween-themed volume, daring Diego and his pals cross paths with bats, jack-o'-lantern, and other things that go bump in the night.

Format : MPEG-4
Format profile : Base Media / Version 2
Codec ID : mp42
File size : 798 MiB
Duration : 1h 36mn
Overall bit rate : 1 154 Kbps
Encoded date : UTC 2009-10-15 07:12:44
Tagged date : UTC 2009-10-15 11:56:01
Writing application : HandBrake 0.9.3 2008112300

Video
ID : 1
Format : AVC
Format/Info : Advanced Video Codec
Format profile : Main@L4.0
Format settings, CABAC : Yes
Format settings, ReFrames : 3 frames
Codec ID : avc1
Codec ID/Info : Advanced Video Coding
Duration : 1h 36mn
Bit rate mode : Variable
Bit rate : 668 Kbps
Width : 720 pixels
Height : 570 pixels
Display aspect ratio : 4:3
Original display aspect ratio : 4:3
Frame rate mode : Variable
Frame rate : 25.000 fps
Minimum frame rate : 12.500 fps
Maximum frame rate : 35.982 fps
Resolution : 24 bits
Colorimetry : 4:2:0
Scan type : Progressive
Bits/(Pixel*Frame) : 0.065
Stream size : 462 MiB (58%)
Writing library : x264 core 65


Audio #1
ID : 2
Format : AAC
Format/Info : Advanced Audio Codec
Format version : Version 4
Format profile : LC
Format settings, SBR : No
Codec ID : 40
Duration : 1h 36mn
Bit rate mode : Variable
Bit rate : 160 Kbps
Maximum bit rate : 266 Kbps
Channel(s) : 2 channels
Channel positions : L R
Sampling rate : 48.0 KHz
Resolution : 16 bits
Stream size : 110 MiB (14%)
Language : English
Encoded date : UTC 2009-10-15 07:12:44
Tagged date : UTC 2009-10-15 11:55:56

Audio #2
ID : 3
Format : AAC
Format/Info : Advanced Audio Codec
Format version : Version 4
Format profile : LC
Format settings, SBR : No
Codec ID : 40
Duration : 1h 36mn
Bit rate mode : Variable
Bit rate : 160 Kbps
Maximum bit rate : 245 Kbps
Channel(s) : 2 channels
Channel positions : L R
Sampling rate : 48.0 KHz
Resolution : 16 bits
Stream size : 110 MiB (14%)
Language : French
Encoded date : UTC 2009-10-15 07:12:44
Tagged date : UTC 2009-10-15 11:55:56

Audio #3
ID : 4
Format : AAC
Format/Info : Advanced Audio Codec
Format version : Version 4
Format profile : LC
Format settings, SBR : No
Codec ID : 40
Duration : 1h 36mn
Bit rate mode : Variable
Bit rate : 160 Kbps
Maximum bit rate : 252 Kbps
Channel(s) : 2 channels
Channel positions : L R
Sampling rate : 48.0 KHz
Resolution : 16 bits
Stream size : 110 MiB (14%)
Language : Dutch
Encoded date : UTC 2009-10-15 07:12:44
Tagged date : UTC 2009-10-15 11:55:56 